<?xml version="1.0" encoding="us-ascii" standalone="no"?><svg xmlns="http://www.w3.org/2000/svg" xmlns:xlink="http://www.w3.org/1999/xlink" contentStyleType="text/css" height="366px" preserveAspectRatio="none" style="width:589px;height:366px;background:#FFFFFF;" version="1.1" viewBox="0 0 589 366" width="589px" zoomAndPan="magnify"><defs/><g><!--class Card--><g id="elem_Card"><rect codeLine="1" fill="#F1F1F1" height="129.4844" id="Card" rx="2.5" ry="2.5" style="stroke:#181818;stroke-width:0.5;" width="156" x="216" y="229.79"/><ellipse cx="273.75" cy="245.79" fill="#ADD1B2" rx="11" ry="11" style="stroke:#181818;stroke-width:1.0;"/><path d="M276.7188,251.4306 Q276.1406,251.7275 275.5,251.8681 Q274.8594,252.0244 274.1563,252.0244 Q271.6563,252.0244 270.3281,250.3838 Q269.0156,248.7275 269.0156,245.6025 Q269.0156,242.4775 270.3281,240.8213 Q271.6563,239.165 274.1563,239.165 Q274.8594,239.165 275.5,239.3213 Q276.1563,239.4775 276.7188,239.7744 L276.7188,242.4931 Q276.0938,241.915 275.5,241.6494 Q274.9063,241.3681 274.2813,241.3681 Q272.9375,241.3681 272.25,242.4463 Q271.5625,243.5088 271.5625,245.6025 Q271.5625,247.6963 272.25,248.7744 Q272.9375,249.8369 274.2813,249.8369 Q274.9063,249.8369 275.5,249.5713 Q276.0938,249.29 276.7188,248.7119 L276.7188,251.4306 Z " fill="#000000"/><text fill="#000000" font-family="sans-serif" font-size="14" lengthAdjust="spacing" textLength="32" x="294.25" y="250.6367">Card</text><line style="stroke:#181818;stroke-width:0.5;" x1="217" x2="371" y1="261.79" y2="261.79"/><rect fill="none" height="6" style="stroke:#C82930;stroke-width:1.0;" width="6" x="224" y="272.4384"/><text fill="#000000" font-family="sans-serif" font-size="14" lengthAdjust="spacing" textLength="77" x="236" y="278.7851">suit : string</text><rect fill="none" height="6" style="stroke:#C82930;stroke-width:1.0;" width="6" x="224" y="288.7353"/><text fill="#000000" font-family="sans-serif" font-size="14" lengthAdjust="spacing" textLength="88" x="236" y="295.082">value : string</text><line style="stroke:#181818;stroke-width:0.5;" x1="217" x2="371" y1="302.3837" y2="302.3837"/><ellipse cx="227" cy="316.0322" fill="#84BE84" rx="3" ry="3" style="stroke:#038048;stroke-width:1.0;"/><text fill="#000000" font-family="sans-serif" font-size="14" lengthAdjust="spacing" textLength="111" x="236" y="319.3789">getSuit() : string</text><ellipse cx="227" cy="332.3291" fill="#84BE84" rx="3" ry="3" style="stroke:#038048;stroke-width:1.0;"/><text fill="#000000" font-family="sans-serif" font-size="14" lengthAdjust="spacing" textLength="123" x="236" y="335.6757">getValue() : string</text><ellipse cx="227" cy="348.6259" fill="#84BE84" rx="3" ry="3" style="stroke:#038048;stroke-width:1.0;"/><text fill="#000000" font-family="sans-serif" font-size="14" lengthAdjust="spacing" textLength="130" x="236" y="351.9726">__toString() : string</text></g><!--class DeckOfCards--><g id="elem_DeckOfCards"><rect codeLine="9" fill="#F1F1F1" height="145.7813" id="DeckOfCards" rx="2.5" ry="2.5" style="stroke:#181818;stroke-width:0.5;" width="270" x="7" y="7"/><ellipse cx="92.25" cy="23" fill="#ADD1B2" rx="11" ry="11" style="stroke:#181818;stroke-width:1.0;"/><path d="M95.2188,28.6406 Q94.6406,28.9375 94,29.0781 Q93.3594,29.2344 92.6563,29.2344 Q90.1563,29.2344 88.8281,27.5938 Q87.5156,25.9375 87.5156,22.8125 Q87.5156,19.6875 88.8281,18.0313 Q90.1563,16.375 92.6563,16.375 Q93.3594,16.375 94,16.5313 Q94.6563,16.6875 95.2188,16.9844 L95.2188,19.7031 Q94.5938,19.125 94,18.8594 Q93.4063,18.5781 92.7813,18.5781 Q91.4375,18.5781 90.75,19.6563 Q90.0625,20.7188 90.0625,22.8125 Q90.0625,24.9063 90.75,25.9844 Q91.4375,27.0469 92.7813,27.0469 Q93.4063,27.0469 94,26.7813 Q94.5938,26.5 95.2188,25.9219 L95.2188,28.6406 Z " fill="#000000"/><text fill="#000000" font-family="sans-serif" font-size="14" lengthAdjust="spacing" textLength="91" x="112.75" y="27.8467">DeckOfCards</text><line style="stroke:#181818;stroke-width:0.5;" x1="8" x2="276" y1="39" y2="39"/><rect fill="none" height="6" style="stroke:#C82930;stroke-width:1.0;" width="6" x="15" y="49.6484"/><text fill="#000000" font-family="sans-serif" font-size="14" lengthAdjust="spacing" textLength="209" x="27" y="55.9951">cards : ArrayCollection&lt;Card&gt;</text><line style="stroke:#181818;stroke-width:0.5;" x1="8" x2="276" y1="63.2969" y2="63.2969"/><ellipse cx="18" cy="76.9453" fill="#84BE84" rx="3" ry="3" style="stroke:#038048;stroke-width:1.0;"/><text fill="#000000" font-family="sans-serif" font-size="14" lengthAdjust="spacing" textLength="97" x="27" y="80.292">shuffle() : void</text><ellipse cx="18" cy="93.2422" fill="#84BE84" rx="3" ry="3" style="stroke:#038048;stroke-width:1.0;"/><text fill="#000000" font-family="sans-serif" font-size="14" lengthAdjust="spacing" textLength="120" x="27" y="96.5889">drawCard() : Card</text><ellipse cx="18" cy="109.5391" fill="#84BE84" rx="3" ry="3" style="stroke:#038048;stroke-width:1.0;"/><text fill="#000000" font-family="sans-serif" font-size="14" lengthAdjust="spacing" textLength="123" x="27" y="112.8857">resetDeck() : void</text><ellipse cx="18" cy="125.8359" fill="#84BE84" rx="3" ry="3" style="stroke:#038048;stroke-width:1.0;"/><text fill="#000000" font-family="sans-serif" font-size="14" lengthAdjust="spacing" textLength="244" x="27" y="129.1826">getCards() : ArrayCollection&lt;Card&gt;</text><ellipse cx="18" cy="142.1328" fill="#84BE84" rx="3" ry="3" style="stroke:#038048;stroke-width:1.0;"/><text fill="#000000" font-family="sans-serif" font-size="14" lengthAdjust="spacing" textLength="165" x="27" y="145.4795">getSortedCards() : array</text></g><!--class CardHand--><g id="elem_CardHand"><rect codeLine="18" fill="#F1F1F1" height="96.8906" id="CardHand" rx="2.5" ry="2.5" style="stroke:#181818;stroke-width:0.5;" width="270" x="312" y="31.45"/><ellipse cx="408.75" cy="47.45" fill="#ADD1B2" rx="11" ry="11" style="stroke:#181818;stroke-width:1.0;"/><path d="M411.7188,53.0906 Q411.1406,53.3875 410.5,53.5281 Q409.8594,53.6844 409.1563,53.6844 Q406.6563,53.6844 405.3281,52.0437 Q404.0156,50.3875 404.0156,47.2625 Q404.0156,44.1375 405.3281,42.4812 Q406.6563,40.825 409.1563,40.825 Q409.8594,40.825 410.5,40.9812 Q411.1563,41.1375 411.7188,41.4344 L411.7188,44.1531 Q411.0938,43.575 410.5,43.3094 Q409.9063,43.0281 409.2813,43.0281 Q407.9375,43.0281 407.25,44.1062 Q406.5625,45.1687 406.5625,47.2625 Q406.5625,49.3562 407.25,50.4344 Q407.9375,51.4969 409.2813,51.4969 Q409.9063,51.4969 410.5,51.2312 Q411.0938,50.95 411.7188,50.3719 L411.7188,53.0906 Z " fill="#000000"/><text fill="#000000" font-family="sans-serif" font-size="14" lengthAdjust="spacing" textLength="68" x="429.25" y="52.2967">CardHand</text><line style="stroke:#181818;stroke-width:0.5;" x1="313" x2="581" y1="63.45" y2="63.45"/><rect fill="none" height="6" style="stroke:#C82930;stroke-width:1.0;" width="6" x="320" y="74.0984"/><text fill="#000000" font-family="sans-serif" font-size="14" lengthAdjust="spacing" textLength="209" x="332" y="80.4451">cards : ArrayCollection&lt;Card&gt;</text><line style="stroke:#181818;stroke-width:0.5;" x1="313" x2="581" y1="87.7469" y2="87.7469"/><ellipse cx="323" cy="101.3953" fill="#84BE84" rx="3" ry="3" style="stroke:#038048;stroke-width:1.0;"/><text fill="#000000" font-family="sans-serif" font-size="14" lengthAdjust="spacing" textLength="141" x="332" y="104.742">addCard(Card) : void</text><ellipse cx="323" cy="117.6922" fill="#84BE84" rx="3" ry="3" style="stroke:#038048;stroke-width:1.0;"/><text fill="#000000" font-family="sans-serif" font-size="14" lengthAdjust="spacing" textLength="244" x="332" y="121.0389">getCards() : ArrayCollection&lt;Card&gt;</text></g><!--link DeckOfCards to Card--><g id="link_DeckOfCards_Card"><path codeLine="24" d="M193.67,153.18 C211.4,177.98 231.11,205.54 248.32,229.63 " fill="none" id="DeckOfCards-Card" style="stroke:#181818;stroke-width:1.0;"/><text fill="#000000" font-family="sans-serif" font-size="13" lengthAdjust="spacing" textLength="54" x="224" y="195.8569">contains</text><text fill="#000000" font-family="sans-serif" font-size="13" lengthAdjust="spacing" textLength="8" x="190.2135" y="172.9535">1</text><text fill="#000000" font-family="sans-serif" font-size="13" lengthAdjust="spacing" textLength="7" x="235.9409" y="218.7852">*</text></g><!--link CardHand to Card--><g id="link_CardHand_Card"><path codeLine="25" d="M412.66,128.61 C391.25,158.37 363.44,197.03 340.12,229.43 " fill="none" id="CardHand-Card" style="stroke:#181818;stroke-width:1.0;"/><text fill="#000000" font-family="sans-serif" font-size="13" lengthAdjust="spacing" textLength="54" x="371" y="195.8569">contains</text><text fill="#000000" font-family="sans-serif" font-size="13" lengthAdjust="spacing" textLength="8" x="399.5081" y="148.2397">1</text><text fill="#000000" font-family="sans-serif" font-size="13" lengthAdjust="spacing" textLength="7" x="337.7816" y="218.5633">*</text></g><!--SRC=[bP5D2m8X48Rl_eh1Kn_ieUiIGTIXMuU5hZ6eMv8egBiHqN_FKVgc80-YxppC-uuAWo700hs4CuEqgj3f23M4wBNT5Qb7qwbNRRnJiKdaOFYfRmZ_A6otqJNv_bowC2PoXAKIXtLBGS8jYSYN6kRUusdXZ54YQcUd1CrAqx3lsjOKizvfMLJfyKXGbkbGPA-2YkJpXgV8sJVBFynePEUZaWyQYNuCGOKLMld712Xpkm5jVyTAni_lnYSSgWhuY9SVhK4u6r7RmEx9lZDN]--></g></svg>